<svg width="50" height="50" viewBox="0 0 50 50" fill="#ffff" xmlns="http://www.w3.org/2000/svg">
<path d="M25 4.16699C36.5062 4.16699 45.833 13.4938 45.833 25C45.833 36.5062 36.5062 45.833 25 45.833C13.4938 45.833 4.16699 36.5062 4.16699 25C4.16699 13.4938 13.4938 4.16699 25 4.16699ZM30.5029 27.1455C30.4078 27.1455 30.3141 27.1734 30.2354 27.2266C30.1566 27.2797 30.0957 27.3554 30.0605 27.4434L29.8223 28.0127C29.4236 28.9792 28.6676 29.7567 27.71 30.1846L27.0371 30.4834C26.951 30.523 26.8782 30.5865 26.8271 30.666C26.7762 30.7454 26.7491 30.8374 26.749 30.9316C26.749 31.026 26.7761 31.1187 26.8271 31.1982C26.8782 31.2778 26.951 31.3412 27.0371 31.3809L27.749 31.6963C28.6826 32.113 29.4264 32.8624 29.833 33.7969L30.0645 34.3252C30.2332 34.7116 30.7717 34.7116 30.9404 34.3252L31.1719 33.7969C31.5785 32.8629 32.3218 32.114 33.2549 31.6973L33.9668 31.3809C34.0531 31.3413 34.1265 31.2779 34.1777 31.1982C34.229 31.1186 34.2568 31.0262 34.2568 30.9316C34.2568 30.8371 34.229 30.7447 34.1777 30.665C34.1265 30.5854 34.0531 30.522 33.9668 30.4824L33.2949 30.1846C32.3375 29.7569 31.5815 28.9798 31.1826 28.0137L30.9443 27.4434C30.9091 27.3554 30.8483 27.2797 30.7695 27.2266C30.6909 27.1735 30.5979 27.1456 30.5029 27.1455ZM21.8838 14.1025C21.7063 14.1025 21.5326 14.1557 21.3857 14.2549C21.2388 14.3541 21.1252 14.495 21.0596 14.6592L20.2256 16.6582C19.5178 18.3719 18.1761 19.7497 16.4775 20.5078L14.2832 21.4775C13.5635 21.795 13.5634 22.8389 14.2832 23.1572L16.5479 24.1572C18.2037 24.8954 19.5218 26.2244 20.2422 27.8818L21.0654 29.7578C21.1331 29.918 21.2471 30.0552 21.3926 30.1514C21.538 30.2475 21.7092 30.2988 21.8838 30.2988C22.0582 30.2988 22.2287 30.2474 22.374 30.1514C22.5195 30.0552 22.6335 29.919 22.7012 29.7588L23.5244 27.8828C24.2446 26.2249 25.5627 24.8957 27.2188 24.1572L29.4844 23.1572C30.2045 22.839 30.2044 21.7958 29.4844 21.4766L27.29 20.5078C25.5915 19.7497 24.2497 18.3719 23.542 16.6582L22.708 14.6592C22.6424 14.4951 22.5286 14.3541 22.3818 14.2549C22.235 14.1557 22.0612 14.1026 21.8838 14.1025Z" fill="#7E18F3"/>
</svg>