<svg width="171" height="37" viewBox="0 0 171 37" fill="none" xmlns="http://www.w3.org/2000/svg">
<path d="M23.1372 31.5088L24.0161 31.4648C24.6606 31.4648 25.0635 31.7505 25.2246 32.3218C25.3125 32.6587 25.4004 32.981 25.4883 33.2886C25.5762 33.5815 25.6201 33.9185 25.6201 34.2993C25.6201 34.6655 25.5103 34.9805 25.2905 35.2441C25.0708 35.5078 24.7852 35.7349 24.4336 35.9253C22.1045 37.1851 19.5703 36.665 16.8311 34.3652C14.5898 32.5049 12.1655 29.4214 9.55811 25.1147L6.48193 19.8413C6.84814 19.1235 7.26562 18.3545 7.73438 17.5342C9.72656 14.209 11.3232 11.748 12.5244 10.1514C14.9707 6.89941 16.9849 4.59229 18.5669 3.22998C19.2407 2.64404 19.7681 2.35107 20.1489 2.35107C20.8374 2.35107 21.4673 2.57812 22.0386 3.03223L22.7637 3.58154C23.8037 4.35791 24.0674 5.07568 23.5547 5.73486C23.291 6.08643 22.9614 6.42334 22.5659 6.74561C22.1704 7.06787 21.7969 7.40479 21.4453 7.75635C20.0977 9.1333 19.0576 10.2319 18.3252 11.0522C16.5674 13.103 15.3442 14.5605 14.6558 15.4248L12.9199 17.71C12.4365 18.3838 12.0337 18.9844 11.7114 19.5117L13.7549 22.5439L15.1831 24.5654C18.23 28.7842 20.5957 31.0693 22.2803 31.4209C22.5586 31.4795 22.8442 31.5088 23.1372 31.5088ZM0 3.88916C0 3.5083 0.117188 3.17871 0.351562 2.90039C0.600586 2.62207 0.893555 2.48291 1.23047 2.48291H4.30664C4.64355 2.48291 4.9292 2.62207 5.16357 2.90039C5.39795 3.17871 5.51514 3.5083 5.51514 3.88916V34.7607C5.51514 35.1416 5.39062 35.4712 5.1416 35.7495C4.90723 36.0278 4.62158 36.167 4.28467 36.167H1.2085C0.871582 36.167 0.585938 36.0278 0.351562 35.7495C0.117188 35.4712 0 35.1416 0 34.7607V3.88916Z" fill="url(#paint0_linear_2221_7584)"/>
<path d="M49.1968 35.0024C49.1968 35.7788 48.8159 36.167 48.0542 36.167H45.9229C45.3516 36.167 45.0073 36.0571 44.8901 35.8374C44.7729 35.603 44.707 35.3979 44.6924 35.2222C44.6777 35.0317 44.6484 34.8047 44.6045 34.541C44.5166 33.8232 44.3921 33.0469 44.231 32.2119C43.0884 34.3066 41.2939 35.6909 38.8477 36.3647C37.9834 36.5991 37.0312 36.7163 35.9912 36.7163C34.9512 36.7163 33.9111 36.5405 32.8711 36.189C31.8311 35.8521 30.9082 35.3467 30.1025 34.6729C28.2861 33.1494 27.3779 31.1499 27.3779 28.6743C27.3779 25.9644 28.374 23.8916 30.3662 22.4561C32.0068 21.2988 34.1162 20.7202 36.6943 20.7202C39.2725 20.7202 41.4551 21.4746 43.2422 22.9834C43.2861 22.4854 43.3081 21.8628 43.3081 21.1157C43.3081 20.3687 43.1616 19.6216 42.8687 18.8745C42.5757 18.1274 42.1582 17.5049 41.6162 17.0068C40.5029 16.0254 38.9502 15.5347 36.958 15.5347C35.1709 15.5347 33.3545 16.0254 31.5088 17.0068C31.1572 17.1973 30.8496 17.2925 30.5859 17.2925C30.1904 17.2925 29.8096 16.9043 29.4434 16.1279C29.0479 15.3369 28.8501 14.7656 28.8501 14.4141C28.8501 13.7695 29.3335 13.147 30.3003 12.5464C32.146 11.4038 34.6143 10.8325 37.7051 10.8325C40.5176 10.8325 42.8467 11.6016 44.6924 13.1396C46.875 14.9854 47.9663 17.5928 47.9663 20.9619C47.9663 22.4561 47.7246 24.3384 47.2412 26.6089C48.4863 30.1538 49.1382 32.9517 49.1968 35.0024ZM34.4751 25.686C33.8745 26.1255 33.4424 26.5649 33.1787 27.0044C32.9297 27.4438 32.8052 27.9639 32.8052 28.5645C32.8052 29.1504 32.9077 29.6777 33.1128 30.1465C33.3325 30.6006 33.6328 30.9814 34.0137 31.2891C34.8193 31.9189 35.7202 32.2339 36.7163 32.2339C37.7271 32.2339 38.5547 32.1167 39.1992 31.8823C39.8438 31.6479 40.4004 31.3477 40.8691 30.9814C41.8799 30.1904 42.3853 29.3555 42.3853 28.4766C42.2974 27.3779 41.6895 26.5137 40.5615 25.8838C39.5508 25.2979 38.3569 25.0049 36.98 25.0049C35.9106 25.0049 35.0757 25.2319 34.4751 25.686Z" fill="url(#paint1_linear_2221_7584)"/>
<path d="M69.082 10.8325C72.7734 10.8325 75.1099 12.4805 76.0913 15.7764C77.5562 13.418 79.4971 11.8799 81.9141 11.1621C82.7344 10.9277 83.7671 10.8105 85.0122 10.8105C86.2573 10.8105 87.4585 11.1182 88.6157 11.7334C89.7876 12.3486 90.6519 13.1543 91.2085 14.1504C91.7798 15.1318 92.1387 16.2158 92.2852 17.4023C92.4463 18.5889 92.5269 19.8633 92.5269 21.2256V34.7168C92.5269 35.127 92.395 35.4712 92.1313 35.7495C91.8677 36.0278 91.4795 36.167 90.9668 36.167H88.8135C88.2568 36.167 87.8467 36.0278 87.583 35.7495C87.3193 35.4712 87.1875 35.127 87.1875 34.7168V21.0278C87.1875 19.1382 86.8579 17.7319 86.1987 16.8091C85.5542 15.8862 84.5288 15.4248 83.1226 15.4248C81.5259 15.4248 80.127 16.1279 78.9258 17.5342C77.6367 18.999 76.9922 20.8154 76.9922 22.9834V34.7168C76.9922 35.127 76.8604 35.4712 76.5967 35.7495C76.333 36.0278 75.9448 36.167 75.4321 36.167H73.2788C72.7222 36.167 72.312 36.0278 72.0483 35.7495C71.7847 35.4712 71.6528 35.127 71.6528 34.7168V21.0278C71.6528 19.1382 71.3232 17.7319 70.6641 16.8091C70.0195 15.8862 68.9941 15.4248 67.5879 15.4248C65.9912 15.4248 64.585 16.1279 63.3691 17.5342C62.0947 18.999 61.4575 20.8154 61.4575 22.9834V34.7168C61.4575 35.127 61.333 35.4712 61.084 35.7495C60.835 36.0278 60.4541 36.167 59.9414 36.167H57.6782C57.1655 36.167 56.7773 36.0278 56.5137 35.7495C56.25 35.4712 56.1182 35.127 56.1182 34.7168V21.2256C56.1182 18.2812 56.0229 16.2305 55.8325 15.0732C55.6421 13.9014 55.5469 13.1982 55.5469 12.9639C55.5469 11.9092 56.0522 11.3818 57.063 11.3818H58.2715C59.0918 11.3818 59.6484 11.6895 59.9414 12.3047C60.293 13.0518 60.6299 14.209 60.9521 15.7764C62.2266 13.4766 64.0723 11.9531 66.4893 11.2061C67.3096 10.957 68.1738 10.8325 69.082 10.8325Z" fill="url(#paint2_linear_2221_7584)"/>
<path d="M103.14 7.14111C102.144 7.14111 101.294 6.79688 100.591 6.1084C99.8877 5.43457 99.5361 4.58496 99.5361 3.55957C99.5361 2.56348 99.8877 1.71387 100.591 1.01074C101.265 0.336914 102.114 0 103.14 0C104.707 0 105.806 0.717773 106.436 2.15332C106.626 2.57812 106.721 3.04688 106.721 3.55957C106.721 4.58496 106.37 5.43457 105.667 6.1084C104.963 6.79688 104.121 7.14111 103.14 7.14111ZM105.71 30.1245C105.71 31.1646 106.055 31.6846 106.743 31.6846C106.978 31.6846 107.241 31.6187 107.534 31.4868C108.105 31.2378 108.494 31.1133 108.699 31.1133C109.006 31.1133 109.255 31.3257 109.446 31.7505L110.127 33.2886C110.244 33.5376 110.303 33.772 110.303 33.9917C110.303 34.6216 109.761 35.2075 108.677 35.7495C107.651 36.2769 106.633 36.5405 105.623 36.5405C104.626 36.5405 103.828 36.4307 103.228 36.2109C102.627 35.9912 102.114 35.625 101.689 35.1123C100.84 34.0576 100.415 32.3438 100.415 29.9707V12.832C100.415 12.4219 100.532 12.0776 100.767 11.7993C101.001 11.521 101.279 11.3818 101.602 11.3818H104.546C104.883 11.3818 105.161 11.521 105.381 11.7993C105.601 12.0776 105.71 12.4219 105.71 12.832V30.1245Z" fill="url(#paint3_linear_2221_7584)"/>
<path d="M116.675 4.37256C116.675 3.5083 116.982 2.92969 117.598 2.63672C117.803 2.53418 118.059 2.48291 118.367 2.48291H128.584C131.455 2.48291 133.901 3.09082 135.923 4.30664C138.384 5.75684 139.614 7.97607 139.614 10.9644C139.614 13.0005 139.028 14.6997 137.856 16.062C136.802 17.2632 135.454 18.0249 133.813 18.3472V18.4351C136.055 18.5376 137.915 19.1895 139.395 20.3906C141.079 21.7969 141.921 23.6865 141.921 26.0596C141.921 29.5166 140.654 32.1167 138.12 33.8599C135.908 35.3979 132.905 36.167 129.111 36.167H118.367C117.766 36.167 117.334 35.9839 117.07 35.6177C116.807 35.2368 116.675 34.79 116.675 34.2773V4.37256ZM122.124 16.8091C124.351 16.8091 126.13 16.7651 127.463 16.6772C129.719 16.5454 131.375 16.0474 132.429 15.1831C133.484 14.3042 134.011 13.0811 134.011 11.5137C134.011 9.94629 133.447 8.82568 132.319 8.15186C131.206 7.46338 129.536 7.11914 127.31 7.11914H122.124V16.8091ZM129.067 31.4868C132.29 31.4868 134.429 30.5713 135.483 28.7402C135.879 28.0664 136.077 27.2754 136.077 26.3672C136.077 25.459 135.952 24.7339 135.703 24.1919C135.454 23.6499 135.117 23.1885 134.692 22.8076C134.268 22.4268 133.77 22.1265 133.198 21.9067C132.627 21.6724 132.026 21.4893 131.396 21.3574C130.298 21.1523 129.199 21.0498 128.101 21.0498C126.724 21.0498 125.266 21.0864 123.728 21.1597L122.124 21.2256L122.146 31.4868H129.067Z" fill="url(#paint4_linear_2221_7584)"/>
<path d="M167.086 15.942L166.799 16.6023C166.754 16.7098 166.678 16.8017 166.581 16.8663C166.484 16.9309 166.37 16.9654 166.254 16.9654C166.137 16.9654 166.023 16.9309 165.927 16.8663C165.83 16.8017 165.754 16.7098 165.709 16.6023L165.422 15.942C164.917 14.7738 163.993 13.8372 162.832 13.317L161.947 12.9215C161.839 12.872 161.748 12.7929 161.684 12.6933C161.621 12.5937 161.587 12.478 161.587 12.3597C161.587 12.2415 161.621 12.1257 161.684 12.0261C161.748 11.9266 161.839 11.8474 161.947 11.798L162.783 11.4258C163.974 10.8907 164.913 9.91948 165.409 8.71212L165.704 7.99929C165.748 7.88887 165.823 7.79407 165.921 7.72725C166.019 7.66043 166.135 7.62469 166.254 7.62469C166.373 7.62469 166.488 7.66043 166.586 7.72725C166.684 7.79407 166.76 7.88887 166.803 7.99929L167.099 8.71096C167.594 9.91854 168.533 10.8902 169.724 11.4258L170.561 11.7991C170.668 11.8487 170.759 11.9279 170.823 12.0273C170.886 12.1267 170.92 12.2423 170.92 12.3603C170.92 12.4783 170.886 12.5938 170.823 12.6933C170.759 12.7927 170.668 12.8719 170.561 12.9215L169.675 13.3158C168.514 13.8365 167.59 14.7736 167.086 15.942ZM166.254 19.2926C167.046 19.2933 167.832 19.1595 168.579 18.8971C168.585 19.0293 168.587 19.1612 168.587 19.2926C168.587 21.768 167.604 24.1419 165.854 25.8923C164.103 27.6426 161.729 28.626 159.254 28.626V32.7093C153.421 30.376 145.254 26.876 145.254 19.2926C145.254 16.8173 146.237 14.4433 147.988 12.693C149.738 10.9426 152.112 9.95929 154.587 9.95929H159.254C159.386 9.95929 159.518 9.96201 159.649 9.96746C159.278 11.0232 159.164 12.1527 159.319 13.2612C159.474 14.3698 159.893 15.425 160.54 16.3384C161.186 17.2518 162.043 17.9968 163.037 18.5108C164.032 19.0248 165.135 19.2929 166.254 19.2926Z" fill="url(#paint5_linear_2221_7584)"/>
<defs>
<linearGradient id="paint0_linear_2221_7584" x1="0" y1="18.3582" x2="170.92" y2="18.3582" gradientUnits="userSpaceOnUse">
<stop stop-color="#7E18F3"/>
<stop offset="1"/>
</linearGradient>
<linearGradient id="paint1_linear_2221_7584" x1="0" y1="18.3582" x2="170.92" y2="18.3582" gradientUnits="userSpaceOnUse">
<stop stop-color="#7E18F3"/>
<stop offset="1"/>
</linearGradient>
<linearGradient id="paint2_linear_2221_7584" x1="0" y1="18.3582" x2="170.92" y2="18.3582" gradientUnits="userSpaceOnUse">
<stop stop-color="#7E18F3"/>
<stop offset="1"/>
</linearGradient>
<linearGradient id="paint3_linear_2221_7584" x1="0" y1="18.3582" x2="170.92" y2="18.3582" gradientUnits="userSpaceOnUse">
<stop stop-color="#7E18F3"/>
<stop offset="1"/>
</linearGradient>
<linearGradient id="paint4_linear_2221_7584" x1="0" y1="18.3582" x2="170.92" y2="18.3582" gradientUnits="userSpaceOnUse">
<stop stop-color="#7E18F3"/>
<stop offset="1"/>
</linearGradient>
<linearGradient id="paint5_linear_2221_7584" x1="0" y1="18.3582" x2="170.92" y2="18.3582" gradientUnits="userSpaceOnUse">
<stop stop-color="#7E18F3"/>
<stop offset="1"/>
</linearGradient>
</defs>
</svg>
