<svg width="496" height="106" viewBox="0 0 496 106" fill="none" xmlns="http://www.w3.org/2000/svg">
<path d="M67.1429 90.9659L69.6934 90.839C71.5638 90.839 72.7328 91.6637 73.2004 93.313C73.4555 94.2857 73.7105 95.216 73.9656 96.1041C74.2206 96.9499 74.3482 97.9226 74.3482 99.0221C74.3482 100.079 74.0293 100.989 73.3917 101.75C72.7541 102.511 71.9251 103.167 70.9049 103.716C64.146 107.353 56.792 105.852 48.8428 99.2124C42.3389 93.8416 35.3037 84.9396 27.7371 72.5063L18.8102 57.2819C19.8729 55.2097 21.0844 52.9894 22.4447 50.6212C28.2259 41.0213 32.8594 33.9166 36.3451 29.307C43.4441 19.9186 49.2891 13.2579 53.8801 9.32495C55.8355 7.63335 57.3658 6.78755 58.4711 6.78755C60.469 6.78755 62.2969 7.44305 63.9547 8.75404L66.0589 10.3399C69.077 12.5813 69.8422 14.6535 68.3544 16.5566C67.5892 17.5715 66.6328 18.5442 65.485 19.4746C64.3373 20.4049 63.2533 21.3776 62.2331 22.3926C58.3223 26.3678 55.3041 29.5396 53.1787 31.9078C48.0776 37.8284 44.5281 42.0363 42.5302 44.5314L37.4929 51.1287C36.0901 53.074 34.9211 54.8079 33.9859 56.3303L39.9159 65.0844L44.0605 70.9204C52.9024 83.0999 59.7676 89.6972 64.6561 90.7122C65.4638 90.8813 66.2927 90.9659 67.1429 90.9659ZM0 11.228C0 10.1285 0.340072 9.17694 1.02021 8.37343C1.74287 7.56992 2.59305 7.16816 3.57075 7.16816H12.4976C13.4753 7.16816 14.3043 7.56992 14.9844 8.37343C15.6645 9.17694 16.0046 10.1285 16.0046 11.228V100.354C16.0046 101.454 15.6433 102.405 14.9206 103.209C14.2405 104.012 13.4116 104.414 12.4339 104.414H3.50699C2.52928 104.414 1.70036 104.012 1.02021 103.209C0.340072 102.405 0 101.454 0 100.354V11.228Z" fill="url(#paint0_linear_2221_7586)"/>
<path d="M142.766 101.052C142.766 103.293 141.661 104.414 139.451 104.414H133.266C131.608 104.414 130.609 104.097 130.269 103.463C129.929 102.786 129.737 102.194 129.695 101.686C129.652 101.137 129.567 100.481 129.44 99.7199C129.185 97.6477 128.823 95.4063 128.356 92.9958C125.04 99.0433 119.833 103.04 112.734 104.985C110.226 105.662 107.463 106 104.444 106C101.426 106 98.4082 105.493 95.3901 104.478C92.3719 103.505 89.6939 102.046 87.3559 100.101C82.0848 95.7024 79.4492 89.9298 79.4492 82.7828C79.4492 74.9591 82.3398 68.9751 88.121 64.8306C92.882 61.4897 99.0033 59.8193 106.485 59.8193C113.966 59.8193 120.3 61.9972 125.486 66.3531C125.614 64.9152 125.678 63.1179 125.678 60.9611C125.678 58.8043 125.253 56.6475 124.402 54.4907C123.552 52.3339 122.341 50.5366 120.768 49.0987C117.537 46.2653 113.031 44.8486 107.25 44.8486C102.064 44.8486 96.7929 46.2653 91.4367 49.0987C90.4165 49.6485 89.5238 49.9234 88.7587 49.9234C87.6109 49.9234 86.5057 48.8027 85.443 46.5613C84.2952 44.2777 83.7214 42.6284 83.7214 41.6134C83.7214 39.7526 85.1242 37.9553 87.9298 36.2214C93.2859 32.9228 100.449 31.2735 109.418 31.2735C117.58 31.2735 124.339 33.4937 129.695 37.9342C136.029 43.2627 139.196 50.7903 139.196 60.5171C139.196 64.8306 138.494 70.2649 137.091 76.8199C140.705 87.0541 142.596 95.1315 142.766 101.052ZM100.045 74.1556C98.3019 75.4243 97.0479 76.693 96.2828 77.9617C95.5601 79.2304 95.1988 80.7317 95.1988 82.4656C95.1988 84.1572 95.4964 85.6796 96.0915 87.0329C96.7291 88.3439 97.6005 89.4435 98.7058 90.3315C101.044 92.15 103.658 93.0592 106.549 93.0592C109.482 93.0592 111.884 92.7209 113.754 92.0443C115.624 91.3676 117.24 90.5007 118.6 89.4435C121.533 87.1598 123 84.7493 123 82.2119C122.745 79.0401 120.98 76.545 117.707 74.7265C114.774 73.0349 111.31 72.1891 107.314 72.1891C104.211 72.1891 101.788 72.8446 100.045 74.1556Z" fill="url(#paint1_linear_2221_7586)"/>
<path d="M200.472 31.2735C211.184 31.2735 217.965 36.0311 220.813 45.5464C225.064 38.7377 230.696 34.2972 237.71 32.225C240.091 31.5484 243.087 31.2101 246.701 31.2101C250.314 31.2101 253.8 32.0981 257.158 33.8743C260.559 35.6505 263.067 37.9765 264.682 40.8522C266.34 43.6856 267.381 46.8151 267.806 50.2406C268.274 53.6661 268.508 57.3453 268.508 61.2783V100.227C268.508 101.412 268.125 102.405 267.36 103.209C266.595 104.012 265.468 104.414 263.981 104.414H257.732C256.116 104.414 254.926 104.012 254.161 103.209C253.396 102.405 253.013 101.412 253.013 100.227V60.7074C253.013 55.2519 252.057 51.1921 250.144 48.5278C248.274 45.8636 245.298 44.5314 241.217 44.5314C236.584 44.5314 232.524 46.5613 229.038 50.6212C225.297 54.8502 223.427 60.0942 223.427 66.3531V100.227C223.427 101.412 223.044 102.405 222.279 103.209C221.514 104.012 220.388 104.414 218.9 104.414H212.651C211.036 104.414 209.845 104.012 209.08 103.209C208.315 102.405 207.933 101.412 207.933 100.227V60.7074C207.933 55.2519 206.976 51.1921 205.063 48.5278C203.193 45.8636 200.217 44.5314 196.136 44.5314C191.503 44.5314 187.422 46.5613 183.894 50.6212C180.195 54.8502 178.346 60.0942 178.346 66.3531V100.227C178.346 101.412 177.985 102.405 177.262 103.209C176.54 104.012 175.434 104.414 173.947 104.414H167.379C165.891 104.414 164.765 104.012 164 103.209C163.234 102.405 162.852 101.412 162.852 100.227V61.2783C162.852 52.778 162.575 46.8574 162.023 43.5165C161.47 40.1333 161.194 38.1033 161.194 37.4267C161.194 34.3818 162.661 32.8594 165.594 32.8594H169.101C171.481 32.8594 173.096 33.7475 173.947 35.5236C174.967 37.6804 175.945 41.0213 176.88 45.5464C180.578 38.9068 185.934 34.5087 192.948 32.3519C195.329 31.633 197.837 31.2735 200.472 31.2735Z" fill="url(#paint2_linear_2221_7586)"/>
<path d="M299.306 20.6164C296.415 20.6164 293.949 19.6226 291.909 17.635C289.868 15.6896 288.848 13.2368 288.848 10.2765C288.848 7.40076 289.868 4.94794 291.909 2.91801C293.864 0.972671 296.33 0 299.306 0C303.854 0 307.042 2.07221 308.87 6.21664C309.423 7.44305 309.699 8.79633 309.699 10.2765C309.699 13.2368 308.679 15.6896 306.638 17.635C304.598 19.6226 302.154 20.6164 299.306 20.6164ZM306.766 86.9695C306.766 89.9721 307.765 91.4734 309.763 91.4734C310.443 91.4734 311.208 91.2831 312.058 90.9025C313.716 90.1835 314.843 89.8241 315.438 89.8241C316.33 89.8241 317.053 90.4373 317.606 91.6637L319.582 96.1041C319.922 96.8231 320.092 97.4997 320.092 98.1341C320.092 99.9525 318.52 101.644 315.374 103.209C312.398 104.731 309.444 105.493 306.511 105.493C303.62 105.493 301.303 105.175 299.561 104.541C297.818 103.907 296.33 102.849 295.097 101.369C292.632 98.3244 291.399 93.3764 291.399 86.5254V37.0461C291.399 35.862 291.739 34.8681 292.419 34.0646C293.099 33.2611 293.907 32.8594 294.842 32.8594H303.386C304.364 32.8594 305.172 33.2611 305.809 34.0646C306.447 34.8681 306.766 35.862 306.766 37.0461V86.9695Z" fill="url(#paint3_linear_2221_7586)"/>
<path d="M338.584 12.6236C338.584 10.1285 339.476 8.45801 341.262 7.61221C341.857 7.31618 342.601 7.16816 343.494 7.16816H373.144C381.475 7.16816 388.574 8.9232 394.441 12.4333C401.582 16.62 405.153 23.0269 405.153 31.6541C405.153 37.5324 403.452 42.4381 400.052 46.371C396.991 49.8388 393.08 52.0379 388.319 52.9683V53.222C394.823 53.5181 400.222 55.4 404.515 58.8677C409.404 62.9276 411.848 68.383 411.848 75.234C411.848 85.2144 408.171 92.7209 400.817 97.7534C394.398 102.194 385.684 104.414 374.674 104.414H343.494C341.751 104.414 340.497 103.885 339.732 102.828C338.966 101.729 338.584 100.439 338.584 98.9587V12.6236ZM354.397 48.5278C360.858 48.5278 366.023 48.401 369.892 48.1472C376.438 47.7666 381.242 46.3287 384.302 43.8336C387.363 41.2962 388.893 37.765 388.893 33.24C388.893 28.7149 387.257 25.4798 383.983 23.5344C380.753 21.5468 375.907 20.553 369.445 20.553H354.397V48.5278ZM374.546 90.9025C383.898 90.9025 390.105 88.2593 393.165 82.9731C394.313 81.0277 394.887 78.7441 394.887 76.1221C394.887 73.5001 394.526 71.4067 393.803 69.842C393.08 68.2773 392.103 66.9451 390.87 65.8456C389.637 64.7461 388.192 63.8791 386.534 63.2448C384.876 62.5681 383.133 62.0395 381.305 61.6589C378.117 61.0668 374.929 60.7708 371.741 60.7708C367.745 60.7708 363.515 60.8765 359.052 61.088L354.397 61.2783L354.461 90.9025H374.546Z" fill="url(#paint4_linear_2221_7586)"/>
<path d="M484.874 46.0244L484.041 47.9308C483.91 48.2412 483.691 48.5064 483.41 48.6929C483.128 48.8795 482.798 48.979 482.46 48.979C482.121 48.979 481.791 48.8795 481.51 48.6929C481.228 48.5064 481.009 48.2412 480.879 47.9308L480.046 46.0244C478.581 42.652 475.9 39.948 472.53 38.4461L469.96 37.3042C469.648 37.1616 469.384 36.933 469.199 36.6455C469.014 36.3581 468.915 36.0239 468.915 35.6825C468.915 35.3411 469.014 35.0069 469.199 34.7194C469.384 34.432 469.648 34.2034 469.96 34.0607L472.387 32.9863C475.842 31.4415 478.57 28.6376 480.008 25.1519L480.865 23.094C480.991 22.7752 481.21 22.5015 481.495 22.3086C481.779 22.1157 482.115 22.0125 482.46 22.0125C482.804 22.0125 483.14 22.1157 483.425 22.3086C483.709 22.5015 483.928 22.7752 484.054 23.094L484.911 25.1485C486.348 28.6348 489.074 31.44 492.528 32.9863L494.959 34.0641C495.27 34.2072 495.533 34.4357 495.718 34.7228C495.902 35.0099 496 35.3435 496 35.6842C496 36.0249 495.902 36.3584 495.718 36.6455C495.533 36.9326 495.27 37.1612 494.959 37.3042L492.386 38.4427C489.017 39.9461 486.336 42.6513 484.874 46.0244ZM482.46 55.6978C484.757 55.6996 487.039 55.3135 489.207 54.556C489.223 54.9377 489.231 55.3183 489.231 55.6978C489.231 62.8442 486.377 69.6978 481.298 74.751C476.218 79.8043 469.329 82.6432 462.146 82.6432V94.4317C445.218 87.6954 421.519 77.5909 421.519 55.6978C421.519 48.5515 424.372 41.6978 429.452 36.6446C434.531 31.5914 441.42 28.7525 448.604 28.7525H462.146C462.53 28.7525 462.912 28.7603 463.294 28.7761C462.215 31.824 461.886 35.0849 462.336 38.2852C462.785 41.4855 463.999 44.532 465.877 47.169C467.754 49.806 470.24 51.9567 473.125 53.4407C476.01 54.9247 479.211 55.6987 482.46 55.6978Z" fill="url(#paint5_linear_2221_7586)"/>
<defs>
<linearGradient id="paint0_linear_2221_7586" x1="0" y1="53" x2="496" y2="53" gradientUnits="userSpaceOnUse">
<stop stop-color="#7E18F3"/>
<stop offset="1"/>
</linearGradient>
<linearGradient id="paint1_linear_2221_7586" x1="0" y1="53" x2="496" y2="53" gradientUnits="userSpaceOnUse">
<stop stop-color="#7E18F3"/>
<stop offset="1"/>
</linearGradient>
<linearGradient id="paint2_linear_2221_7586" x1="0" y1="53" x2="496" y2="53" gradientUnits="userSpaceOnUse">
<stop stop-color="#7E18F3"/>
<stop offset="1"/>
</linearGradient>
<linearGradient id="paint3_linear_2221_7586" x1="0" y1="53" x2="496" y2="53" gradientUnits="userSpaceOnUse">
<stop stop-color="#7E18F3"/>
<stop offset="1"/>
</linearGradient>
<linearGradient id="paint4_linear_2221_7586" x1="0" y1="53" x2="496" y2="53" gradientUnits="userSpaceOnUse">
<stop stop-color="#7E18F3"/>
<stop offset="1"/>
</linearGradient>
<linearGradient id="paint5_linear_2221_7586" x1="0" y1="53" x2="496" y2="53" gradientUnits="userSpaceOnUse">
<stop stop-color="#7E18F3"/>
<stop offset="1"/>
</linearGradient>
</defs>
</svg>
