<?xml version="1.0" standalone="no"?>
<!DOCTYPE svg PUBLIC "-//W3C//DTD SVG 20010904//EN"
 "http://www.w3.org/TR/2001/REC-SVG-20010904/DTD/svg10.dtd">
<svg version="1.0" xmlns="http://www.w3.org/2000/svg"
width="50" height="50" viewBox="0 0 150 50"
 preserveAspectRatio="xMidYMid meet">

<g transform="translate(0.000000,100.000000) scale(0.100000,-0.100000)"
fill="currentColor" stroke="currentColor">
<path d="M597 1354 c-210 -51 -396 -236 -451 -450 -20 -78 -20 -219 -1 -303
51 -214 235 -399 451 -455 78 -20 219 -20 303 -1 214 51 399 235 455 451 20
78 20 219 1 303 -51 214 -235 399 -451 455 -76 20 -227 20 -307 0z m105 -339
c35 -74 69 -107 145 -140 74 -33 72 -55 -6 -90 -70 -32 -107 -68 -141 -138
-34 -71 -53 -72 -85 -4 -32 66 -67 102 -143 142 -77 41 -78 57 -4 90 74 33
113 73 146 148 15 33 32 57 41 57 9 0 28 -27 47 -65z m237 -360 c11 -20 36
-45 56 -56 19 -12 35 -24 35 -27 0 -4 -17 -17 -39 -29 -21 -12 -44 -35 -51
-52 -16 -40 -32 -39 -52 2 -10 21 -31 41 -53 51 -20 10 -35 21 -33 26 2 5 19
19 38 32 19 13 39 32 45 43 14 27 26 45 30 45 1 0 12 -16 24 -35z"/>
</g>
</svg>
